<?xml version="1.0" encoding="UTF-8"?>
<svg width="22px" height="15px" viewBox="0 0 22 15" version="1.1" xmlns="http://www.w3.org/2000/svg" xmlns:xlink="http://www.w3.org/1999/xlink">
    <!-- Generator: Sketch 47.1 (45422) - http://www.bohemiancoding.com/sketch -->
    <title>Shape</title>
    <desc>Created with Sketch.</desc>
    <defs></defs>
    <g id="EY_Styles" stroke="none" stroke-width="1" fill="none" fill-rule="evenodd">
        <g id="EY_Global_Navigation_Default_1440px-Copy" transform="translate(-1388.000000, -865.000000)" fill-rule="nonzero" fill="#c4c4cd">
            <g id="EY_Global_Naviation_Drawer_1440px" transform="translate(1080.000000, 0.000000)">
                <g id="Connect-with-us" transform="translate(0.000000, 842.000000)">
                    <g id="Group-13" transform="translate(23.000000, 18.000000)">
                        <g id="Group-5">
                            <g id="cellphone-link" transform="translate(285.000000, 5.000000)">
                                <path d="M20.1666667,11.9166667 L16.5,11.9166667 L16.5,5.5 L20.1666667,5.5 L20.1666667,11.9166667 Z M21.0833333,3.66666667 L15.5833333,3.66666667 C15.0770723,3.66666667 14.6666667,4.07707231 14.6666667,4.58333333 L14.6666667,13.75 C14.6666667,14.256261 15.0770723,14.6666667 15.5833333,14.6666667 L21.0833333,14.6666667 C21.5895944,14.6666667 22,14.256261 22,13.75 L22,4.58333333 C22,4.07707231 21.5895944,3.66666667 21.0833333,3.66666667 L21.0833333,3.66666667 Z M3.66666667,1.83333333 L20.1666667,1.83333333 L20.1666667,0 L3.66666667,0 C2.65414463,0 1.83333333,0.820811292 1.83333333,1.83333333 L1.83333333,11.9166667 L0,11.9166667 L0,14.6666667 L12.8333333,14.6666667 L12.8333333,11.9166667 L3.66666667,11.9166667 L3.66666667,1.83333333 Z" id="Shape"></path>
                            </g>
                        </g>
                    </g>
                </g>
            </g>
        </g>
    </g>
</svg>
