<?xml version="1.0" encoding="UTF-8"?>
<svg width="22px" height="22px" viewBox="0 0 22 22" version="1.1" xmlns="http://www.w3.org/2000/svg" xmlns:xlink="http://www.w3.org/1999/xlink">
    <!-- Generator: Sketch 47.1 (45422) - http://www.bohemiancoding.com/sketch -->
    <title>Shape</title>
    <desc>Created with Sketch.</desc>
    <defs></defs>
    <g id="EY_Styles" stroke="none" stroke-width="1" fill="none" fill-rule="evenodd">
        <g id="EY_Global_Navigation_Default_1440px-Copy" transform="translate(-1388.000000, -800.000000)" fill="#c4c4cd">
            <g id="EY_Global_Naviation_Drawer_1440px" transform="translate(1080.000000, 0.000000)">
                <g id="Select-your-country" transform="translate(0.000000, 781.000000)">
                    <g id="Group-5">
                        <path d="M318.989,19 C312.917,19 308,23.928 308,30 C308,36.072 312.917,41 318.989,41 C325.072,41 330,36.072 330,30 C330,23.928 325.072,19 318.989,19 L318.989,19 Z M327,26 L323.593533,26 C323.224018,24.5955056 322.692841,23.247191 322,22 C324.124711,22.7078652 325.891455,24.1460674 327,26 L327,26 Z M319,21 C319.86911,22.2121212 320.549738,23.5555556 321,25 L317,25 C317.450262,23.5555556 318.13089,22.2121212 319,21 L319,21 Z M310.285714,32 C310.10989,31.36 310,30.69 310,30 C310,29.31 310.10989,28.64 310.285714,28 L314,28 C313.912088,28.66 313.846154,29.32 313.846154,30 C313.846154,30.68 313.912088,31.34 314,32 L310.285714,32 L310.285714,32 Z M311,34 L314.406467,34 C314.775982,35.4044944 315.307159,36.752809 316,38 C313.875289,37.2921348 312.108545,35.8651685 311,34 L311,34 Z M314.406467,26 L311,26 C312.108545,24.1348315 313.875289,22.7078652 316,22 C315.307159,23.247191 314.775982,24.5955056 314.406467,26 L314.406467,26 Z M319,38 C318.13089,36.7878788 317.450262,35.4444444 317,34 L321,34 C320.549738,35.4444444 319.86911,36.7878788 319,38 L319,38 Z M321.808,32 L316.192,32 C316.084,31.34 316,30.68 316,30 C316,29.32 316.084,28.65 316.192,28 L321.808,28 C321.916,28.65 322,29.32 322,30 C322,30.68 321.916,31.34 321.808,32 L321.808,32 Z M322,38 C322.692841,36.752809 323.224018,35.4044944 323.593533,34 L327,34 C325.891455,35.8539326 324.124711,37.2921348 322,38 L322,38 Z M324,32 C324.087912,31.34 324.153846,30.68 324.153846,30 C324.153846,29.32 324.087912,28.66 324,28 L327.714286,28 C327.89011,28.64 328,29.31 328,30 C328,30.69 327.89011,31.36 327.714286,32 L324,32 L324,32 Z" id="Shape"></path>
                    </g>
                </g>
            </g>
        </g>
    </g>
</svg>
