<?xml version="1.0" encoding="UTF-8" standalone="no"?>
<svg width="17px" height="17px" viewBox="0 0 17 17" version="1.1" xmlns="http://www.w3.org/2000/svg" xmlns:xlink="http://www.w3.org/1999/xlink">
    <!-- Generator: Sketch 47.1 (45422) - http://www.bohemiancoding.com/sketch -->
    <title>Fill 1</title>
    <desc>Created with Sketch.</desc>
    <defs></defs>
    <g id="EY_Styles" stroke="none" stroke-width="1" fill="none" fill-rule="evenodd">
        <g id="EY_CTAs_Desktop-and-Tablet" transform="translate(-1212.000000, -3089.000000)" fill="#2E2E38">
            <g id="Icons-Light-BG" transform="translate(790.000000, 3012.000000)">
                <g id="default" transform="translate(84.000000, 63.000000)">
                    <g id="Facebook-Light-BG" transform="translate(324.000000, 0.000000)">
                        <path d="M30.0617022,14 L14.9382341,14 C14.4200079,14 14,14.4200079 14,14.9382341 L14,30.0617022 C14,30.5798647 14.4200079,31 14.9382341,31 L23.0802338,31 L23.0802338,24.416692 L20.8647783,24.416692 L20.8647783,21.8510388 L23.0802338,21.8510388 L23.0802338,19.9589651 C23.0802338,17.7632552 24.421278,16.5676277 26.3800408,16.5676277 C27.3183387,16.5676277 28.1247232,16.6374379 28.3596958,16.6686487 L28.3596958,18.9633414 L27.001199,18.9639783 C25.9359561,18.9639783 25.7296465,19.4701662 25.7296465,20.2129826 L25.7296465,21.8510388 L28.2702673,21.8510388 L27.9394968,24.416692 L25.7296465,24.416692 L25.7296465,31 L30.0617022,31 C30.5798647,31 30.9999363,30.5798647 30.9999363,30.0617022 L30.9999363,14.9382341 C30.9999363,14.4200079 30.5798647,14 30.0617022,14" id="Fill-1"></path>
                    </g>
                </g>
            </g>
        </g>
    </g>
</svg>