<?xml version="1.0" encoding="UTF-8"?>
<svg width="17px" height="16px" viewBox="0 0 17 16" version="1.1" xmlns="http://www.w3.org/2000/svg" xmlns:xlink="http://www.w3.org/1999/xlink">
    <!-- Generator: Sketch 48.2 (47327) - http://www.bohemiancoding.com/sketch -->
    <title>Icon_Pencil_15px</title>
    <desc>Created with Sketch.</desc>
    <defs></defs>
    <g id="EY_CTAs_Desktop-and-Tablet" stroke="none" stroke-width="1" fill="none" fill-rule="evenodd" transform="translate(-996.000000, -3089.000000)">
        <g id="Icons-Light-BG" transform="translate(790.000000, 3012.000000)" fill="#ffffff">
            <g id="default" transform="translate(84.000000, 63.000000)">
                <g id="invision-Light-BG" transform="translate(108.000000, 0.000000)">
                    <path d="M17.8038147,19.1989101 L17.8038147,30 L14.2070845,30 L14.2070845,19.1989101 L17.8038147,19.1989101 Z M18.0326975,15.8637602 C18.0399637,16.3941898 17.856496,16.8374187 17.4822888,17.1934605 C17.1080817,17.5495022 16.6158069,17.7275204 16.0054496,17.7275204 L15.9836512,17.7275204 C15.3878263,17.7275204 14.908267,17.5495022 14.5449591,17.1934605 C14.1816512,16.8374187 14,16.3941898 14,15.8637602 C14,15.3260645 14.1871008,14.881019 14.5613079,14.5286104 C14.935515,14.1762017 15.4241568,14 16.027248,14 C16.6303391,14 17.1135313,14.1762017 17.4768392,14.5286104 C17.8401471,14.881019 18.0254314,15.3260645 18.0326975,15.8637602 Z M23.373297,20.7337759 C23.5117076,20.5156283 23.6533957,20.3237175 23.7983651,20.1580381 C23.9509544,19.9836504 24.1562203,19.7947331 24.4141689,19.5912807 C24.6721175,19.3878282 24.9881907,19.2297917 25.3623978,19.1171662 C25.736605,19.0045408 26.1525863,18.9482289 26.6103542,18.9482289 C27.8528672,18.9482289 28.851949,19.3605772 29.6076294,20.1852861 C30.3633099,21.009995 30.7411444,22.2179757 30.7411444,23.8092643 L30.7411444,30 L27.1553134,30 L27.1553134,24.2234332 C27.1553134,23.4604866 27.0081759,22.8628541 26.7138965,22.4305177 C26.4196171,21.9981813 25.9600395,21.7820163 25.3351499,21.7820163 C24.8773819,21.7820163 24.4940978,21.9073557 24.1852861,22.1580381 C23.8764744,22.4087206 23.6457773,22.7193442 23.493188,23.0899183 C23.4132603,23.307903 23.373297,23.602178 23.373297,23.972752 L23.373297,30 L19.7874659,30 C19.8019983,27.1008029 19.8092643,24.7502361 19.8092643,22.9482289 C19.8092643,21.1462217 19.8056313,20.0708464 19.7983651,19.7220708 L19.7874659,19.1989101 L23.373297,19.1989101 L23.373297,20.7337759 Z" id="Icon_Pencil_15px"></path>
                </g>
            </g>
        </g>
    </g>
</svg>
