<?xml version="1.0" encoding="UTF-8"?>
<svg width="26px" height="26px" viewBox="0 0 26 26" version="1.1" xmlns="http://www.w3.org/2000/svg" xmlns:xlink="http://www.w3.org/1999/xlink">
    <!-- Generator: Sketch 47 (45396) - http://www.bohemiancoding.com/sketch -->
    <title>Shape</title>
    <desc>Created with Sketch.</desc>
    <defs></defs>
    <g id="EY_full_width_search" stroke="none" stroke-width="1" fill="none" fill-rule="evenodd">
        <g id="EY_in_line_search_1440px" transform="translate(-937.000000, -138.000000)" fill="#2e2e38">
            <g id="In-Line-Search" transform="translate(0.000000, 100.000000)">
                <path d="M955.582047,54.3522013 L954.407662,54.3522013 L953.991424,53.950829 C955.448256,52.2561464 956.325329,50.056032 956.325329,47.6626644 C956.325329,42.3259005 951.999428,38 946.662664,38 C941.325901,38 937,42.3259005 937,47.6626644 C937,52.9994282 941.325901,57.3253288 946.662664,57.3253288 C949.056032,57.3253288 951.256146,56.4482561 952.950829,54.9914237 L953.352201,55.4076615 L953.352201,56.5820469 L960.78502,64 L963,61.78502 L955.582047,54.3522013 L955.582047,54.3522013 Z M946.662664,54.3522013 C942.961121,54.3522013 939.973128,51.3642081 939.973128,47.6626644 C939.973128,43.9611206 942.961121,40.9731275 946.662664,40.9731275 C950.364208,40.9731275 953.352201,43.9611206 953.352201,47.6626644 C953.352201,51.3642081 950.364208,54.3522013 946.662664,54.3522013 L946.662664,54.3522013 Z" id="Shape"></path>
            </g>
        </g>
    </g>
</svg>
