<?xml version="1.0" encoding="UTF-8"?>
<svg width="20px" height="16px" viewBox="0 0 20 16" version="1.1" xmlns="http://www.w3.org/2000/svg" xmlns:xlink="http://www.w3.org/1999/xlink">
    <!-- Generator: Sketch 48.2 (47327) - http://www.bohemiancoding.com/sketch -->
    <title>Twitter_20px</title>
    <desc>Created with Sketch.</desc>
    <defs></defs>
    <g id="EY_CTAs_Desktop-and-Tablet" stroke="none" stroke-width="1" fill="none" fill-rule="evenodd" transform="translate(-1102.000000, -3089.000000)">
        <g id="Icons-Light-BG" transform="translate(790.000000, 3012.000000)" fill="#2E2E38">
            <g id="default" transform="translate(84.000000, 63.000000)">
                <g id="Twitter-Light-BG" transform="translate(216.000000, 0.000000)">
                    <path d="M31.7,15.9 C31.1416639,16.7166708 30.4666706,17.4124971 29.675,17.9875 C29.6833334,18.1041672 29.6875,18.2791655 29.6875,18.5125 C29.6875,19.5958388 29.5291682,20.6770779 29.2125,21.75625 C28.8958318,22.8354221 28.4145866,23.8708284 27.76875,24.8625 C27.1229134,25.8541716 26.3541711,26.7312462 25.4625,27.49375 C24.5708289,28.2562538 23.4958396,28.8645811 22.2375,29.31875 C20.9791604,29.7729189 19.6333405,30 18.2,30 C15.9416554,30 13.8750094,29.3958394 12,28.1875 C12.2916681,28.2208335 12.6166649,28.2375 12.975,28.2375 C14.8500094,28.2375 16.520826,27.6625058 17.9875,26.5125 C17.1124956,26.4958333 16.3291701,26.2270859 15.6375,25.70625 C14.9458299,25.1854141 14.4708346,24.5208374 14.2125,23.7125 C14.4875014,23.7541669 14.7416655,23.775 14.975,23.775 C15.3333351,23.775 15.6874983,23.7291671 16.0375,23.6375 C15.104162,23.4458324 14.3312531,22.9812537 13.71875,22.24375 C13.1062469,21.5062463 12.8,20.6500049 12.8,19.675 L12.8,19.625 C13.3666695,19.9416682 13.9749968,20.1124999 14.625,20.1375 C14.0749972,19.7708315 13.6375016,19.2916696 13.3125,18.7 C12.9874984,18.1083304 12.825,17.4666701 12.825,16.775 C12.825,16.041663 13.0083315,15.3625031 13.375,14.7375 C14.3833384,15.9791729 15.6104094,16.9729129 17.05625,17.71875 C18.5020906,18.4645871 20.0499918,18.8791663 21.7,18.9625 C21.633333,18.6458317 21.6,18.3375015 21.6,18.0375 C21.6,16.9208278 21.9937461,15.9687539 22.78125,15.18125 C23.5687539,14.3937461 24.5208278,14 25.6375,14 C26.8041725,14 27.787496,14.4249957 28.5875,15.275 C29.4958379,15.0999991 30.349996,14.7750024 31.15,14.3 C30.8416651,15.2583381 30.2500044,15.9999974 29.375,16.525 C30.1500039,16.4416663 30.9249961,16.233335 31.7,15.9 Z" id="Twitter_20px"></path>
                </g>
            </g>
        </g>
    </g>
</svg>